<svg width="400" height="400" viewBox="0 0 400 400" fill="none" xmlns="http://www.w3.org/2000/svg">
  <g opacity="0.1">
    <!-- Mask pattern -->
    <path d="M50 50C55.5 50 60 45.5 60 40C60 34.5 55.5 30 50 30C44.5 30 40 34.5 40 40C40 45.5 44.5 50 50 50Z" fill="currentColor"/>
    <path d="M50 110C55.5 110 60 105.5 60 100C60 94.5 55.5 90 50 90C44.5 90 40 94.5 40 100C40 105.5 44.5 110 50 110Z" fill="currentColor"/>
    <path d="M50 170C55.5 170 60 165.5 60 160C60 154.5 55.5 150 50 150C44.5 150 40 154.5 40 160C40 165.5 44.5 170 50 170Z" fill="currentColor"/>
    <path d="M50 230C55.5 230 60 225.5 60 220C60 214.5 55.5 210 50 210C44.5 210 40 214.5 40 220C40 225.5 44.5 230 50 230Z" fill="currentColor"/>
    <path d="M50 290C55.5 290 60 285.5 60 280C60 274.5 55.5 270 50 270C44.5 270 40 274.5 40 280C40 285.5 44.5 290 50 290Z" fill="currentColor"/>
    <path d="M50 350C55.5 350 60 345.5 60 340C60 334.5 55.5 330 50 330C44.5 330 40 334.5 40 340C40 345.5 44.5 350 50 350Z" fill="currentColor"/>
    
    <path d="M110 50C115.5 50 120 45.5 120 40C120 34.5 115.5 30 110 30C104.5 30 100 34.5 100 40C100 45.5 104.5 50 110 50Z" fill="currentColor"/>
    <path d="M110 110C115.5 110 120 105.5 120 100C120 94.5 115.5 90 110 90C104.5 90 100 94.5 100 100C100 105.5 104.5 110 110 110Z" fill="currentColor"/>
    <path d="M110 170C115.5 170 120 165.5 120 160C120 154.5 115.5 150 110 150C104.5 150 100 154.5 100 160C100 165.5 104.5 170 110 170Z" fill="currentColor"/>
    <path d="M110 230C115.5 230 120 225.5 120 220C120 214.5 115.5 210 110 210C104.5 210 100 214.5 100 220C100 225.5 104.5 230 110 230Z" fill="currentColor"/>
    <path d="M110 290C115.5 290 120 285.5 120 280C120 274.5 115.5 270 110 270C104.5 270 100 274.5 100 280C100 285.5 104.5 290 110 290Z" fill="currentColor"/>
    <path d="M110 350C115.5 350 120 345.5 120 340C120 334.5 115.5 330 110 330C104.5 330 100 334.5 100 340C100 345.5 104.5 350 110 350Z" fill="currentColor"/>
    
    <!-- African sculpture silhouettes -->
    <path d="M170 70C180 50 190 50 200 70C210 50 220 50 230 70V100C230 110 220 120 200 120C180 120 170 110 170 100V70Z" fill="currentColor"/>
    <path d="M170 190C180 170 190 170 200 190C210 170 220 170 230 190V220C230 230 220 240 200 240C180 240 170 230 170 220V190Z" fill="currentColor"/>
    <path d="M170 310C180 290 190 290 200 310C210 290 220 290 230 310V340C230 350 220 360 200 360C180 360 170 350 170 340V310Z" fill="currentColor"/>
    
    <!-- Adinkra symbols -->
    <path d="M290 50C300 40 310 40 320 50C330 60 330 70 320 80C310 90 300 90 290 80C280 70 280 60 290 50Z" fill="currentColor"/>
    <path d="M290 170C300 160 310 160 320 170C330 180 330 190 320 200C310 210 300 210 290 200C280 190 280 180 290 170Z" fill="currentColor"/>
    <path d="M290 290C300 280 310 280 320 290C330 300 330 310 320 320C310 330 300 330 290 320C280 310 280 300 290 290Z" fill="currentColor"/>
    
    <!-- Connection patterns -->
    <path d="M350 50L370 70M350 70L370 50" stroke="currentColor" stroke-width="2"/>
    <path d="M350 110L370 130M350 130L370 110" stroke="currentColor" stroke-width="2"/>
    <path d="M350 170L370 190M350 190L370 170" stroke="currentColor" stroke-width="2"/>
    <path d="M350 230L370 250M350 250L370 230" stroke="currentColor" stroke-width="2"/>
    <path d="M350 290L370 310M350 310L370 290" stroke="currentColor" stroke-width="2"/>
    <path d="M350 350L370 370M350 370L370 350" stroke="currentColor" stroke-width="2"/>
  </g>
</svg>
