<svg width="160" height="50" viewBox="0 0 160 50" fill="none" xmlns="http://www.w3.org/2000/svg">
  <defs>
    <linearGradient id="gradient" x1="0%" y1="0%" x2="100%" y2="0%">
      <stop offset="0%" stop-color="#9333EA" />
      <stop offset="100%" stop-color="#0D9488" />
    </linearGradient>
  </defs>
  <!-- African mask-inspired logo shape -->
  <path d="M35 10H15C12.2386 10 10 12.2386 10 15V35C10 37.7614 12.2386 40 15 40H35C37.7614 40 40 37.7614 40 35V15C40 12.2386 37.7614 10 35 10Z" fill="url(#gradient)" />
  
  <!-- Stylized Z shape with African pattern -->
  <path d="M32 17L18 33H27L13 17H32Z" fill="white" />
  <path d="M30 19L28 21L26 19H30Z" fill="url(#gradient)" />
  <path d="M24 19L22 21L20 19H24Z" fill="url(#gradient)" />
  <path d="M18 19L16 21L14 19H18Z" fill="url(#gradient)" />
  
  <!-- Text -->
  <path d="M55.432 35V19.8H64.968V22.872H59.048V25.944H64.2V29.016H59.048V31.928H65.16V35H55.432ZM72.6978 35.288C71.3778 35.288 70.2338 35.032 69.2658 34.52C68.3138 34.008 67.5778 33.288 67.0578 32.36C66.5378 31.416 66.2818 30.312 66.2818 29.048C66.2818 27.784 66.5378 26.68 67.0578 25.736C67.5778 24.792 68.3138 24.072 69.2658 23.576C70.2338 23.064 71.3778 22.808 72.6978 22.808C74.0178 22.808 75.1538 23.064 76.1058 23.576C77.0738 24.072 77.8178 24.792 78.3378 25.736C78.8578 26.68 79.1138 27.784 79.1138 29.048C79.1138 30.312 78.8578 31.416 78.3378 32.36C77.8178 33.288 77.0738 34.008 76.1058 34.52C75.1538 35.032 74.0178 35.288 72.6978 35.288ZM72.6978 32.12C73.4098 32.12 73.9858 31.864 74.4258 31.352C74.8658 30.824 75.0858 30.056 75.0858 29.048C75.0858 28.04 74.8658 27.272 74.4258 26.744C73.9858 26.216 73.4098 25.952 72.6978 25.952C71.9858 25.952 71.4098 26.216 70.9698 26.744C70.5298 27.272 70.3098 28.04 70.3098 29.048C70.3098 30.056 70.5298 30.824 70.9698 31.352C71.4098 31.864 71.9858 32.12 72.6978 32.12ZM86.3947 35.288C85.0747 35.288 83.9307 35.032 82.9627 34.52C82.0107 34.008 81.2747 33.288 80.7547 32.36C80.2347 31.416 79.9787 30.312 79.9787 29.048C79.9787 27.784 80.2347 26.68 80.7547 25.736C81.2747 24.792 82.0107 24.072 82.9627 23.576C83.9307 23.064 85.0747 22.808 86.3947 22.808C87.7147 22.808 88.8507 23.064 89.8027 23.576C90.7707 24.072 91.5147 24.792 92.0347 25.736C92.5547 26.68 92.8107 27.784 92.8107 29.048C92.8107 30.312 92.5547 31.416 92.0347 32.36C91.5147 33.288 90.7707 34.008 89.8027 34.52C88.8507 35.032 87.7147 35.288 86.3947 35.288ZM86.3947 32.12C87.1067 32.12 87.6827 31.864 88.1227 31.352C88.5627 30.824 88.7827 30.056 88.7827 29.048C88.7827 28.04 88.5627 27.272 88.1227 26.744C87.6827 26.216 87.1067 25.952 86.3947 25.952C85.6827 25.952 85.1067 26.216 84.6667 26.744C84.2267 27.272 84.0067 28.04 84.0067 29.048C84.0067 30.056 84.2267 30.824 84.6667 31.352C85.1067 31.864 85.6827 32.12 86.3947 32.12ZM94.5916 35V23.096H98.2076V24.92C98.5836 24.28 99.0636 23.8 99.6476 23.48C100.248 23.16 100.928 23 101.688 23V26.84H100.752C99.8796 26.84 99.2156 27.032 98.7596 27.416C98.3196 27.8 98.0956 28.456 98.0956 29.384V35H94.5916ZM108.076 35.288C106.932 35.288 105.916 35.064 105.028 34.616C104.14 34.152 103.444 33.512 102.94 32.696C102.436 31.864 102.184 30.904 102.184 29.816V23.096H105.688V29.24C105.688 30.088 105.892 30.744 106.3 31.208C106.708 31.656 107.276 31.88 108.004 31.88C108.732 31.88 109.3 31.656 109.708 31.208C110.116 30.744 110.32 30.088 110.32 29.24V23.096H113.824V35H110.32V33.368C109.96 33.976 109.468 34.44 108.844 34.76C108.22 35.112 107.508 35.288 106.716 35.288H108.076ZM121.343 35.288C120.023 35.288 118.879 35.032 117.911 34.52C116.959 34.008 116.223 33.288 115.703 32.36C115.183 31.416 114.927 30.312 114.927 29.048C114.927 27.784 115.183 26.68 115.703 25.736C116.223 24.792 116.959 24.072 117.911 23.576C118.879 23.064 120.023 22.808 121.343 22.808C122.663 22.808 123.799 23.064 124.751 23.576C125.719 24.072 126.463 24.792 126.983 25.736C127.503 26.68 127.759 27.784 127.759 29.048C127.759 30.312 127.503 31.416 126.983 32.36C126.463 33.288 125.719 34.008 124.751 34.52C123.799 35.032 122.663 35.288 121.343 35.288ZM121.343 32.12C122.055 32.12 122.631 31.864 123.071 31.352C123.511 30.824 123.731 30.056 123.731 29.048C123.731 28.04 123.511 27.272 123.071 26.744C122.631 26.216 122.055 25.952 121.343 25.952C120.631 25.952 120.055 26.216 119.615 26.744C119.175 27.272 118.955 28.04 118.955 29.048C118.955 30.056 119.175 30.824 119.615 31.352C120.055 31.864 120.631 32.12 121.343 32.12ZM129.547 35V23.096H133.051V24.728C133.411 24.12 133.891 23.656 134.491 23.336C135.107 23 135.795 22.832 136.555 22.832C137.851 22.832 138.867 23.24 139.603 24.056C140.355 24.856 140.731 26.008 140.731 27.512V35H137.227V28.088C137.227 27.304 137.035 26.712 136.651 26.312C136.283 25.896 135.763 25.688 135.091 25.688C134.395 25.688 133.843 25.896 133.435 26.312C133.027 26.712 132.827 27.304 132.827 28.088V35H129.547Z" fill="url(#gradient)" />
</svg>
