<svg width="400" height="400" viewBox="0 0 400 400" fill="none" xmlns="http://www.w3.org/2000/svg">
  <g opacity="0.1">
    <!-- Connection nodes and lines -->
    <circle cx="50" cy="50" r="10" fill="currentColor"/>
    <circle cx="150" cy="80" r="10" fill="currentColor"/>
    <circle cx="250" cy="50" r="10" fill="currentColor"/>
    <circle cx="350" cy="90" r="10" fill="currentColor"/>
    <circle cx="80" cy="150" r="10" fill="currentColor"/>
    <circle cx="200" cy="180" r="10" fill="currentColor"/>
    <circle cx="320" cy="150" r="10" fill="currentColor"/>
    <circle cx="50" cy="250" r="10" fill="currentColor"/>
    <circle cx="150" cy="280" r="10" fill="currentColor"/>
    <circle cx="250" cy="250" r="10" fill="currentColor"/>
    <circle cx="350" cy="290" r="10" fill="currentColor"/>
    <circle cx="80" cy="350" r="10" fill="currentColor"/>
    <circle cx="200" cy="380" r="10" fill="currentColor"/>
    <circle cx="320" cy="350" r="10" fill="currentColor"/>
    
    <!-- Connection lines -->
    <line x1="50" y1="50" x2="150" y2="80" stroke="currentColor" stroke-width="2"/>
    <line x1="150" y1="80" x2="250" y2="50" stroke="currentColor" stroke-width="2"/>
    <line x1="250" y1="50" x2="350" y2="90" stroke="currentColor" stroke-width="2"/>
    <line x1="50" y1="50" x2="80" y2="150" stroke="currentColor" stroke-width="2"/>
    <line x1="150" y1="80" x2="200" y2="180" stroke="currentColor" stroke-width="2"/>
    <line x1="250" y1="50" x2="320" y2="150" stroke="currentColor" stroke-width="2"/>
    <line x1="80" y1="150" x2="50" y2="250" stroke="currentColor" stroke-width="2"/>
    <line x1="200" y1="180" x2="150" y2="280" stroke="currentColor" stroke-width="2"/>
    <line x1="320" y1="150" x2="250" y2="250" stroke="currentColor" stroke-width="2"/>
    <line x1="50" y1="250" x2="80" y2="350" stroke="currentColor" stroke-width="2"/>
    <line x1="150" y1="280" x2="200" y2="380" stroke="currentColor" stroke-width="2"/>
    <line x1="250" y1="250" x2="320" y2="350" stroke="currentColor" stroke-width="2"/>
    
    <!-- Message bubbles -->
    <rect x="100" y="120" width="40" height="20" rx="10" fill="currentColor"/>
    <rect x="260" y="100" width="40" height="20" rx="10" fill="currentColor"/>
    <rect x="180" y="220" width="40" height="20" rx="10" fill="currentColor"/>
    <rect x="100" y="320" width="40" height="20" rx="10" fill="currentColor"/>
    <rect x="260" y="300" width="40" height="20" rx="10" fill="currentColor"/>
    
    <!-- Social media icons -->
    <circle cx="30" cy="100" r="15" stroke="currentColor" stroke-width="2"/>
    <circle cx="370" cy="150" r="15" stroke="currentColor" stroke-width="2"/>
    <circle cx="30" cy="300" r="15" stroke="currentColor" stroke-width="2"/>
    <circle cx="370" cy="350" r="15" stroke="currentColor" stroke-width="2"/>
  </g>
</svg>
